<svg xmlns="http://www.w3.org/2000/svg" viewBox="0 0 82.63 97.78"><defs><style>.cls-1{fill-rule:evenodd;}</style></defs><g id="Layer_2" data-name="Layer 2"><g id="Layer_1-2" data-name="Layer 1"><path class="cls-1" d="M40.11,3.79c1.2,4.58,1,4.83,0,9.61-3.65,18.29-16.69,41-25.77,57.48-5.53,10-4.16,13.49,7.74,14,12.62.56,30.16-4.23,41.45-9.85a17.62,17.62,0,0,0,3.26-1.92C59.62,69.73,46.43,68.84,39.36,68c-4.87-.57-10.13-3.06-8.76-8.86s12.32-12.44,17-16c7.81-6,22.62-17.4,15.89-28.75C59.62,8,52.76,5,47.58,0c4.68.38,6.54,1.11,10.69,3.25,22,11.34,14.59,28.71.49,42.86C57.43,47.37,51.57,52.56,47,56.72c9.47.51,20.75,1.52,27.61,5,6.57,3.41,10.16,9.42,6.7,16.39-8.16,16.12-50.88,22.9-67,18.13-17-5-17.3-17.75-8.73-30.93C15.68,49.77,25.89,34.83,34,18c2.3-4.81,3.85-9.58,6.1-14.17Z"/><path class="cls-1" d="M22.37,32.17s-.06.08-.08.1.07-.05.08-.1Z"/></g></g></svg>